<?xml version="1.0" encoding="UTF-8"?>
<svg id="Layer_2" data-name="Layer 2" xmlns="http://www.w3.org/2000/svg" viewBox="0 0 16.5 16.55">
  <defs>
    <style>
      .cls-1 {
        fill: red;
      }

      .cls-1, .cls-2, .cls-3, .cls-4 {
        stroke: #000;
        stroke-miterlimit: 10;
        stroke-width: .5px;
      }

      .cls-2 {
        fill: blue;
      }

      .cls-3 {
        fill: lime;
      }

      .cls-4 {
        fill: #ff0;
      }
    </style>
  </defs>
  <g id="Layer_1-2" data-name="Layer 1">
    <g>
      <g>
        <path class="cls-1" d="m10.73,8.01l-2.41-2.35s-.05-.13,0-.18L13.62.29s.13-.05.18,0l2.41,2.35s.05.13,0,.18l-5.3,5.2s-.13.05-.18,0Z"/>
        <path class="cls-3" d="m13.53,5.67l-2.4,2.36s-.13.05-.18,0L5.63,2.85s-.05-.13,0-.18L8.03.32s.13-.05.18,0l5.32,5.18s.05.13,0,.18Z"/>
        <path class="cls-4" d="m2.99,5.53s-.05.13,0,.18l2.41,2.35s.13.05.18,0l.02-.02-2.59-2.52-.02.02Z"/>
        <path class="cls-4" d="m11.03,2.68L8.61.33s-.13-.05-.18,0l-2.7,2.65,2.59,2.52,2.7-2.65s.05-.13,0-.18Z"/>
        <path class="cls-2" d="m5.61,8.05s.13.05.18,0l2.4-2.36s.05-.13,0-.18h0s-2.58,2.53-2.58,2.53h0Z"/>
        <path class="cls-2" d="m8.18,5.51l-2.58,2.53-2.59-2.53L.29,2.87s-.05-.13,0-.18L2.69.34s.13-.05.18,0l2.72,2.64,2.59,2.53Z"/>
      </g>
      <g>
        <path class="cls-1" d="m5.77,16.16l2.41-2.35s.05-.13,0-.18l-5.3-5.2s-.13-.05-.18,0L.29,10.79s-.05.13,0,.18l5.3,5.2s.13.05.18,0Z"/>
        <path class="cls-3" d="m2.97,13.83l2.4,2.36s.13.05.18,0l5.32-5.18s.05-.13,0-.18l-2.4-2.36s-.13-.05-.18,0l-5.32,5.18s-.05.13,0,.18Z"/>
        <path class="cls-4" d="m13.51,13.69s.05.13,0,.18l-2.41,2.35s-.13.05-.18,0l-.02-.02,2.59-2.52.02.02Z"/>
        <path class="cls-4" d="m5.47,10.84l2.41-2.35s.13-.05.18,0l2.7,2.65-2.59,2.52-2.7-2.65s-.05-.13,0-.18Z"/>
        <path class="cls-2" d="m10.89,16.21s-.13.05-.18,0l-2.4-2.36s-.05-.13,0-.18h0s2.58,2.53,2.58,2.53h0Z"/>
        <path class="cls-2" d="m8.32,13.66l2.58,2.53,2.59-2.53,2.72-2.64s.05-.13,0-.18l-2.41-2.36s-.13-.05-.18,0l-2.72,2.64-2.59,2.53Z"/>
      </g>
    </g>
  </g>
</svg>